<svg width="79" height="46" viewBox="0 0 79 46" fill="none" xmlns="http://www.w3.org/2000/svg">
<path d="M61.1613 0H7.64516C5.61754 0 3.67296 0.807736 2.23922 2.24551C0.80547 3.68329 0 5.63334 0 7.66667V38.3333C0 40.3667 0.80547 42.3167 2.23922 43.7545C3.67296 45.1923 5.61754 46 7.64516 46H61.1613C63.1889 46 65.1335 45.1923 66.5672 43.7545C68.001 42.3167 68.8065 40.3667 68.8065 38.3333V7.66667C68.8065 5.63334 68.001 3.68329 66.5672 2.24551C65.1335 0.807736 63.1889 0 61.1613 0ZM63.7097 38.3333C63.7097 39.0111 63.4412 39.6611 62.9633 40.1404C62.4854 40.6196 61.8372 40.8889 61.1613 40.8889H7.64516C6.96929 40.8889 6.32109 40.6196 5.84318 40.1404C5.36526 39.6611 5.09677 39.0111 5.09677 38.3333V7.66667C5.09677 6.98889 5.36526 6.33888 5.84318 5.85962C6.32109 5.38036 6.96929 5.11111 7.64516 5.11111H61.1613C61.8372 5.11111 62.4854 5.38036 62.9633 5.85962C63.4412 6.33888 63.7097 6.98889 63.7097 7.66667V38.3333ZM56.0645 12.7778V33.2222C56.0645 33.9 55.796 34.55 55.3181 35.0293C54.8402 35.5085 54.192 35.7778 53.5161 35.7778C52.8403 35.7778 52.1921 35.5085 51.7141 35.0293C51.2362 34.55 50.9677 33.9 50.9677 33.2222V12.7778C50.9677 12.1 51.2362 11.45 51.7141 10.9707C52.1921 10.4915 52.8403 10.2222 53.5161 10.2222C54.192 10.2222 54.8402 10.4915 55.3181 10.9707C55.796 11.45 56.0645 12.1 56.0645 12.7778ZM43.3226 12.7778V33.2222C43.3226 33.9 43.0541 34.55 42.5762 35.0293C42.0983 35.5085 41.4501 35.7778 40.7742 35.7778C40.0983 35.7778 39.4501 35.5085 38.9722 35.0293C38.4943 34.55 38.2258 33.9 38.2258 33.2222V12.7778C38.2258 12.1 38.4943 11.45 38.9722 10.9707C39.4501 10.4915 40.0983 10.2222 40.7742 10.2222C41.4501 10.2222 42.0983 10.4915 42.5762 10.9707C43.0541 11.45 43.3226 12.1 43.3226 12.7778ZM30.5806 12.7778V33.2222C30.5806 33.9 30.3122 34.55 29.8342 35.0293C29.3563 35.5085 28.7081 35.7778 28.0323 35.7778C27.3564 35.7778 26.7082 35.5085 26.2303 35.0293C25.7524 34.55 25.4839 33.9 25.4839 33.2222V12.7778C25.4839 12.1 25.7524 11.45 26.2303 10.9707C26.7082 10.4915 27.3564 10.2222 28.0323 10.2222C28.7081 10.2222 29.3563 10.4915 29.8342 10.9707C30.3122 11.45 30.5806 12.1 30.5806 12.7778ZM17.8387 12.7778V33.2222C17.8387 33.9 17.5702 34.55 17.0923 35.0293C16.6144 35.5085 15.9662 35.7778 15.2903 35.7778C14.6144 35.7778 13.9663 35.5085 13.4883 35.0293C13.0104 34.55 12.7419 33.9 12.7419 33.2222V12.7778C12.7419 12.1 13.0104 11.45 13.4883 10.9707C13.9663 10.4915 14.6144 10.2222 15.2903 10.2222C15.9662 10.2222 16.6144 10.4915 17.0923 10.9707C17.5702 11.45 17.8387 12.1 17.8387 12.7778ZM79 12.7778V33.2222C79 33.9 78.7315 34.55 78.2536 35.0293C77.7757 35.5085 77.1275 35.7778 76.4516 35.7778C75.7757 35.7778 75.1275 35.5085 74.6496 35.0293C74.1717 34.55 73.9032 33.9 73.9032 33.2222V12.7778C73.9032 12.1 74.1717 11.45 74.6496 10.9707C75.1275 10.4915 75.7757 10.2222 76.4516 10.2222C77.1275 10.2222 77.7757 10.4915 78.2536 10.9707C78.7315 11.45 79 12.1 79 12.7778Z" fill="white"/>
</svg>
