<svg width="40" height="58" viewBox="0 0 40 58" fill="none" xmlns="http://www.w3.org/2000/svg">
<path d="M39.1111 40.6L23.7028 29L39.1111 17.4C39.3871 17.1922 39.6111 16.9228 39.7654 16.613C39.9197 16.3033 40 15.9617 40 15.6154C40 15.2691 39.9197 14.9275 39.7654 14.6178C39.6111 14.308 39.3871 14.0386 39.1111 13.8308L21.3333 0.446155C21.0032 0.197587 20.6106 0.0462196 20.1996 0.00901492C19.7885 -0.0281898 19.3753 0.0502375 19.0062 0.235509C18.6371 0.420781 18.3266 0.705578 18.1097 1.05799C17.8927 1.41039 17.7778 1.81649 17.7778 2.23077V24.5385L3.55557 13.8308C3.08407 13.4758 2.49141 13.3234 1.90796 13.407C1.32452 13.4907 0.798075 13.8036 0.444453 14.2769C0.0908316 14.7502 -0.0610059 15.3452 0.0223435 15.9309C0.105693 16.5166 0.417403 17.045 0.888898 17.4L16.2972 29L0.888898 40.6C0.655437 40.7758 0.45875 40.996 0.310066 41.2481C0.161382 41.5001 0.063614 41.7791 0.0223435 42.0691C-0.061006 42.6548 0.0908316 43.2498 0.444453 43.7231C0.798075 44.1964 1.32452 44.5093 1.90796 44.593C2.49141 44.6766 3.08407 44.5242 3.55557 44.1692L17.7778 33.4615V55.7692C17.7778 56.1835 17.8927 56.5896 18.1097 56.942C18.3266 57.2944 18.6371 57.5792 19.0062 57.7645C19.3753 57.9498 19.7885 58.0282 20.1996 57.991C20.6106 57.9538 21.0032 57.8024 21.3333 57.5538L39.1111 44.1692C39.3871 43.9614 39.6111 43.692 39.7654 43.3822C39.9197 43.0725 40 42.7309 40 42.3846C40 42.0383 39.9197 41.6967 39.7654 41.387C39.6111 41.0772 39.3871 40.8078 39.1111 40.6ZM22.2222 6.69231L34.075 15.6154L22.2222 24.5385V6.69231ZM22.2222 51.3077V33.4615L34.075 42.3846L22.2222 51.3077Z" fill="white"/>
</svg>
