<svg width="20" height="24" viewBox="0 0 20 24" fill="none" xmlns="http://www.w3.org/2000/svg">
<path d="M19.707 14.707L10.7075 23.7067C10.6146 23.7997 10.5043 23.8735 10.3829 23.9238C10.2615 23.9741 10.1314 24 10 24C9.86859 24 9.73847 23.9741 9.61708 23.9238C9.49569 23.8735 9.38541 23.7997 9.29254 23.7067L0.29304 14.707C0.105409 14.5194 0 14.2649 0 13.9995C0 13.7342 0.105409 13.4797 0.29304 13.2921C0.48067 13.1044 0.735151 12.999 1.0005 12.999C1.26585 12.999 1.52033 13.1044 1.70796 13.2921L9.00005 20.5856V0.999967C9.00005 0.734759 9.10541 0.480414 9.29293 0.292884C9.48046 0.105354 9.7348 0 10 0C10.2652 0 10.5195 0.105354 10.7071 0.292884C10.8946 0.480414 10.9999 0.734759 10.9999 0.999967V20.5856L18.292 13.2921C18.4797 13.1044 18.7341 12.999 18.9995 12.999C19.2648 12.999 19.5193 13.1044 19.707 13.2921C19.8946 13.4797 20 13.7342 20 13.9995C20 14.2649 19.8946 14.5194 19.707 14.707Z" fill="white"/>
</svg>
