<svg width="46" height="58" viewBox="0 0 46 58" fill="none" xmlns="http://www.w3.org/2000/svg">
<path d="M17.2497 35.0475V9.66828C17.2497 9.15544 17.0478 8.66361 16.6883 8.30098C16.3289 7.93835 15.8414 7.73462 15.3331 7.73462C14.8247 7.73462 14.3372 7.93835 13.9778 8.30098C13.6184 8.66361 13.4164 9.15544 13.4164 9.66828V35.0475C11.6097 35.5181 10.0351 36.6374 8.98785 38.1955C7.94058 39.7536 7.49251 41.6436 7.72764 43.5111C7.96276 45.3787 8.86493 47.0956 10.265 48.3401C11.6652 49.5846 13.4671 50.2711 15.3331 50.2711C17.199 50.2711 19.001 49.5846 20.4011 48.3401C21.8012 47.0956 22.7034 45.3787 22.9385 43.5111C23.1736 41.6436 22.7255 39.7536 21.6783 38.1955C20.631 36.6374 19.0564 35.5181 17.2497 35.0475ZM15.3331 46.4077C14.5749 46.4077 13.8338 46.1809 13.2034 45.756C12.573 45.331 12.0817 44.727 11.7916 44.0204C11.5015 43.3137 11.4255 42.5361 11.5735 41.7859C11.7214 41.0358 12.0864 40.3467 12.6225 39.8058C13.1586 39.265 13.8416 38.8966 14.5852 38.7474C15.3288 38.5982 16.0996 38.6748 16.8 38.9675C17.5004 39.2602 18.0991 39.7559 18.5203 40.3919C18.9415 41.0278 19.1663 41.7755 19.1663 42.5404C19.1663 43.5661 18.7625 44.5498 18.0436 45.275C17.3247 46.0003 16.3497 46.4077 15.3331 46.4077ZM24.9162 30.4551V9.66828C24.9162 7.10409 23.9066 4.64493 22.1094 2.83177C20.3122 1.01862 17.8747 0 15.3331 0C12.7914 0 10.3539 1.01862 8.55674 2.83177C6.75955 4.64493 5.7499 7.10409 5.7499 9.66828V30.4551C3.27006 32.4582 1.46813 35.1889 0.593119 38.2699C-0.281887 41.3508 -0.186765 44.63 0.865343 47.654C1.91745 50.6781 3.87459 53.2978 6.4663 55.1512C9.05801 57.0045 12.1563 58 15.3331 58C18.5098 58 21.6081 57.0045 24.1998 55.1512C26.7915 53.2978 28.7487 50.6781 29.8008 47.654C30.8529 44.63 30.948 41.3508 30.073 38.2699C29.198 35.1889 27.3961 32.4582 24.9162 30.4551ZM15.3331 54.1424C12.8844 54.1426 10.4997 53.3542 8.52594 51.8921C6.55223 50.43 5.09262 48.3705 4.35964 46.0134C3.62666 43.6563 3.65856 41.1247 4.45071 38.7871C5.24285 36.4496 6.75388 34.4282 8.7638 33.0172C9.01814 32.838 9.22557 32.5992 9.36829 32.3214C9.51101 32.0435 9.58474 31.7349 9.58316 31.4219V9.66828C9.58316 8.12977 10.189 6.65427 11.2673 5.56638C12.3456 4.47848 13.8081 3.86731 15.3331 3.86731C16.858 3.86731 18.3205 4.47848 19.3989 5.56638C20.4772 6.65427 21.083 8.12977 21.083 9.66828V31.4219C21.0829 31.7332 21.1574 32.0399 21.3001 32.316C21.4427 32.592 21.6493 32.8293 21.9023 33.0075C23.9164 34.417 25.4314 36.439 26.2263 38.7784C27.0211 41.1178 27.0542 43.6522 26.3207 46.012C25.5873 48.3717 24.1256 50.4332 22.149 51.8958C20.1724 53.3584 17.7843 54.1455 15.3331 54.1424ZM29.0609 17.589C28.7833 17.1595 28.6862 16.6363 28.7909 16.1345C28.8955 15.6328 29.1935 15.1935 29.6192 14.9133C33.2128 12.547 36.0567 13.7652 38.1266 14.6571C40.0097 15.4692 41.1501 15.9527 43.0356 14.7175C43.4616 14.4374 43.9805 14.3395 44.4781 14.4453C44.9757 14.5512 45.4113 14.8521 45.6889 15.2819C45.9666 15.7117 46.0637 16.2352 45.9587 16.7373C45.8538 17.2393 45.5555 17.6787 45.1295 17.9588C43.5746 18.9812 42.1659 19.3366 40.8938 19.3366C39.2167 19.3366 37.7984 18.7226 36.6221 18.2175C34.739 17.4029 33.5986 16.9195 31.7131 18.1546C31.5021 18.2932 31.2662 18.3885 31.0187 18.435C30.7713 18.4816 30.5172 18.4786 30.2709 18.426C30.0246 18.3735 29.791 18.2726 29.5834 18.1289C29.3758 17.9853 29.1983 17.8019 29.0609 17.589ZM45.6877 23.0178C45.9653 23.4473 46.0625 23.9704 45.9578 24.4722C45.8531 24.974 45.5552 25.4133 45.1295 25.6934C43.5746 26.7159 42.1659 27.0712 40.8938 27.0712C39.2167 27.0712 37.7984 26.4572 36.6221 25.9521C34.7366 25.1399 33.5986 24.6517 31.7131 25.8916C31.5021 26.0304 31.2662 26.1258 31.0187 26.1725C30.7711 26.2192 30.5169 26.2163 30.2706 26.1639C30.0242 26.1115 29.7904 26.0106 29.5827 25.8671C29.3749 25.7235 29.1972 25.5401 29.0597 25.3273C28.7821 24.8974 28.685 24.3739 28.7899 23.8719C28.8948 23.3699 29.1931 22.9305 29.6192 22.6504C33.2128 20.284 36.0567 21.5023 38.1266 22.3941C40.0121 23.2063 41.1501 23.6969 43.0356 22.4546C43.4613 22.1745 43.9799 22.0765 44.4773 22.1821C44.9746 22.2877 45.41 22.5883 45.6877 23.0178Z" fill="white"/>
</svg>
