<svg width="46" height="58" viewBox="0 0 46 58" fill="none" xmlns="http://www.w3.org/2000/svg">
<path d="M3.65236 6.8923C3.46888 6.68724 3.24617 6.52033 2.99714 6.40123C2.74811 6.28214 2.47771 6.21323 2.20162 6.1985C1.92553 6.18378 1.64924 6.22352 1.38876 6.31544C1.12828 6.40736 0.888787 6.54963 0.68417 6.73399C0.479554 6.91835 0.31388 7.14114 0.19675 7.38945C0.07962 7.63776 0.0133631 7.90664 0.00182131 8.18053C-0.0097205 8.45441 0.0336821 8.72784 0.129512 8.98497C0.225342 9.2421 0.371695 9.47782 0.560087 9.67846L6.47302 16.1286C2.1898 22.5269 0.0168484 28.9433 0.0168484 35.2148C0.0170786 39.69 1.34648 44.066 3.83918 47.797C6.33187 51.5279 9.87751 54.4485 14.0337 56.1944C18.1899 57.9403 22.7726 58.4342 27.2101 57.6144C31.6476 56.7946 35.7433 54.6975 38.9863 51.5847L42.3476 55.2513C42.5311 55.4563 42.7538 55.6232 43.0029 55.7423C43.2519 55.8614 43.5223 55.9303 43.7984 55.945C44.0745 55.9598 44.3508 55.92 44.6112 55.8281C44.8717 55.7362 45.1112 55.5939 45.3158 55.4096C45.5204 55.2252 45.6861 55.0024 45.8032 54.7541C45.9204 54.5058 45.9866 54.2369 45.9982 53.963C46.0097 53.6891 45.9663 53.4157 45.8705 53.1586C45.7747 52.9015 45.6283 52.6657 45.4399 52.4651L3.65236 6.8923ZM23 53.8582C18.0145 53.8527 13.2347 51.8867 9.70939 48.3916C6.18408 44.8965 4.20113 40.1576 4.1956 35.2148C4.1956 30.0542 5.94023 24.7097 9.38248 19.3005L36.1709 48.5137C32.6589 51.9409 27.9279 53.8606 23 53.8582ZM13.0755 11.0068C12.6744 10.6277 12.4417 10.1062 12.4285 9.557C12.4152 9.00779 12.6226 8.47587 13.0049 8.07823C15.6957 5.25162 18.6399 2.67323 21.8012 0.374877C22.1525 0.130883 22.5711 0 23 0C23.4289 0 23.8475 0.130883 24.1988 0.374877C25.0894 0.991145 45.9832 15.7169 45.9832 35.2148C45.9844 37.2619 45.7077 39.2999 45.1605 41.2739C45.0392 41.7112 44.7766 42.097 44.4128 42.3721C44.0491 42.6471 43.6043 42.7962 43.1468 42.7964C42.958 42.7981 42.7699 42.7737 42.5879 42.7239C42.054 42.5781 41.6003 42.2281 41.3266 41.7508C41.0528 41.2735 40.9814 40.708 41.128 40.1786C41.5759 38.5613 41.8034 36.8919 41.8044 35.2148C41.8044 20.3932 27.3146 8.02644 23 4.66027C20.5312 6.5844 18.2043 8.68109 16.0371 10.9343C15.8479 11.1325 15.6209 11.2917 15.3694 11.4026C15.1179 11.5136 14.8467 11.5742 14.5715 11.581C14.2963 11.5877 14.0224 11.5404 13.7657 11.4419C13.5089 11.3434 13.2744 11.1955 13.0755 11.0068Z" fill="white"/>
</svg>
